<?xml version="1.0" encoding="UTF-8"?>
<svg version="1.1" xmlns="http://www.w3.org/2000/svg" width="272" height="263">
<path d="M0 0 C1.69515627 2.41744025 3.07441562 4.65790511 4.4375 7.25 C4.82437988 7.96220703 5.21125977 8.67441406 5.60986328 9.40820312 C9.444263 16.58953838 13.35676437 24.15856694 15.56542969 32.01000977 C17.3657972 37.97704178 20.12589059 40.03818636 25.5 42.9375 C26.94755451 43.77777817 28.39155767 44.62420264 29.83203125 45.4765625 C30.89478271 46.10353027 30.89478271 46.10353027 31.97900391 46.74316406 C36.69092028 49.67345465 40.88786699 53.2873707 45 57 C45.86955322 57.68803711 46.73910645 58.37607422 47.63500977 59.08496094 C50.88909153 63.09587621 50.50616172 65.76502847 50.171875 70.74609375 C50.11343686 72.48889423 50.05618467 74.2317348 50 75.97460938 C49.88298346 78.69402495 49.75150874 81.41118537 49.59570312 84.12866211 C48.86637569 97.76733488 50.59979079 105.25442022 59 116 C60.46613888 118.47650093 61.68400075 120.96662257 62.9375 123.5625 C63.75541016 125.23505859 63.75541016 125.23505859 64.58984375 126.94140625 C68.08361251 134.51930359 68.56180387 139.35782171 65.87109375 147.35546875 C58.08673954 167.48449367 47.67416238 186.29359333 34 203 C33.50000488 203.61891113 33.00000977 204.23782227 32.48486328 204.87548828 C30.92036016 206.80382934 29.33873283 208.71659067 27.75 210.625 C27.02526489 211.51360718 27.02526489 211.51360718 26.28588867 212.42016602 C20.16451716 219.63527565 13.10142154 221.01195424 4 222 C0.66886339 222.25894767 -2.66332331 222.45304475 -6 222.625 C-7.30880127 222.69388428 -7.30880127 222.69388428 -8.64404297 222.76416016 C-13.24848734 222.97507061 -17.65218857 222.88943212 -22.25 222.5 C-29.12829959 222.4130552 -34.12884927 226.06461683 -39.80859375 229.53515625 C-43.99237 232.07068849 -48.31763159 234.08162138 -52.8125 236 C-53.48829102 236.29011963 -54.16408203 236.58023926 -54.86035156 236.87915039 C-61.90569924 239.86216141 -67.85413869 241.46426011 -75.15625 238.56640625 C-76.61150907 237.91458882 -78.0592597 237.24580982 -79.5 236.5625 C-80.28262207 236.20994141 -81.06524414 235.85738281 -81.87158203 235.49414062 C-85.75413723 233.70303659 -89.4372709 231.7962992 -93.0234375 229.46484375 C-103.17307777 222.90460085 -110.50314174 222.32220057 -122.43457031 222.94091797 C-126.7226857 223.03967358 -130.93073915 222.60445059 -135.1875 222.125 C-135.94071533 222.04580322 -136.69393066 221.96660645 -137.4699707 221.88500977 C-152.36729738 220.17569749 -158.1791177 214.98394767 -167.4375 203.375 C-201.95982972 158.80785162 -201.95982972 158.80785162 -201.32080078 136.34716797 C-200.74115633 132.10614682 -198.97500361 128.54134465 -197.0625 124.75 C-196.66369629 123.91936035 -196.26489258 123.0887207 -195.85400391 122.23291016 C-193.3140203 117.10228234 -190.45042558 112.83165293 -186.875 108.375 C-181.6447018 101.25925635 -182.58565588 95.28289377 -183.75244141 86.97460938 C-184.21821682 83.2594303 -184.14774284 79.56369795 -184.05078125 75.828125 C-183.95502625 72.96607081 -183.95502625 72.96607081 -184.23046875 69.984375 C-184.36709811 64.90957012 -183.92556287 62.08304226 -180.56640625 58.15234375 C-177.26593782 55.12898166 -173.6731964 52.54730187 -170 50 C-169.3390332 49.53223145 -168.67806641 49.06446289 -167.99707031 48.58251953 C-156.26043761 40.32036123 -156.26043761 40.32036123 -152.1875 39.28515625 C-149.8626799 38.23861806 -149.8626799 38.23861806 -149.37963867 36.19262695 C-149.06065243 34.62907143 -148.76825801 33.0599394 -148.49755859 31.48730469 C-147.20789911 25.04027286 -143.85439523 19.01033117 -141.01855469 13.12060547 C-140.13512311 11.28132294 -139.28694483 9.4251872 -138.4453125 7.56640625 C-135.47745286 1.89979341 -132.65444904 -0.6621719 -126.625 -2.875 C-123.77470055 -3.70935162 -120.90118687 -4.36748695 -118 -5 C-117.01386719 -5.21881836 -116.02773437 -5.43763672 -115.01171875 -5.66308594 C-79.01976956 -13.5077641 -34.33428301 -16.29805496 0 0 Z M-55 4 C-54.15071382 5.96962114 -53.26948192 7.92548813 -52.375 9.875 C-51.88773438 10.96554688 -51.40046875 12.05609375 -50.8984375 13.1796875 C-48.16685826 17.23771262 -45.55922163 17.48065878 -40.93310547 18.41943359 C-38.54234859 18.88457545 -36.14672982 19.31676105 -33.75 19.75 C-25.01726199 21.39499282 -16.79213025 23.85166233 -8.4296875 26.828125 C-5.28863292 28.10777739 -5.28863292 28.10777739 -3 28 C-3.59229387 24.156977 -4.69616463 21.24788324 -6.625 17.875 C-7.09164062 17.02679688 -7.55828125 16.17859375 -8.0390625 15.3046875 C-13.0702426 9.39154754 -21.89156805 8.77340244 -29.125 7.375 C-30.23415771 7.15626221 -31.34331543 6.93752441 -32.48608398 6.7121582 C-39.98936288 5.27486858 -47.3481917 4.16733577 -55 4 Z M-86.28125 4.3828125 C-87.11390381 4.4950415 -87.94655762 4.60727051 -88.80444336 4.72290039 C-93.5460084 5.43020567 -98.27573477 6.18481716 -103 7 C-103.93827637 7.15710449 -104.87655273 7.31420898 -105.84326172 7.47607422 C-116.48837544 9.06299695 -116.48837544 9.06299695 -125.51171875 14.3359375 C-127.08487033 16.87278727 -128.1115325 19.15781061 -129 22 C-129.680625 23.794375 -129.680625 23.794375 -130.375 25.625 C-130.58125 26.40875 -130.7875 27.1925 -131 28 C-129.54148119 27.60485063 -128.08320674 27.20879943 -126.625 26.8125 C-125.61953125 26.54050781 -124.6140625 26.26851562 -123.578125 25.98828125 C-120.99797808 25.27564242 -118.4279814 24.54479914 -115.859375 23.79296875 C-114.36474917 23.36140442 -112.86995266 22.93043081 -111.375 22.5 C-110.61227783 22.27618652 -109.84955566 22.05237305 -109.0637207 21.82177734 C-105.14275541 20.71365179 -101.3654366 19.85414605 -97.30859375 19.43359375 C-89.01804598 18.77616341 -89.01804598 18.77616341 -82.3828125 14.1484375 C-80.63339495 11.14843231 -79.20538854 8.25303603 -78 5 C-80.97022105 4.10173416 -83.21370106 3.96727448 -86.28125 4.3828125 Z M-128.5 43 C-129.31863525 43.3196875 -130.13727051 43.639375 -130.98071289 43.96875 C-135.44286495 45.80298468 -135.44286495 45.80298468 -138.4921875 49.38671875 C-139.04018674 52.20680713 -139.41779774 54.94620213 -139.625 57.8125 C-139.69976562 58.78832031 -139.77453125 59.76414062 -139.8515625 60.76953125 C-139.90054688 61.50558594 -139.94953125 62.24164063 -140 63 C-139.4831665 62.75878418 -138.96633301 62.51756836 -138.43383789 62.26904297 C-135.98035681 61.12966554 -133.52195588 60.00142231 -131.0625 58.875 C-130.16184814 58.45903564 -129.26119629 58.04307129 -128.33325195 57.61450195 C-123.23972581 55.30650491 -118.23145043 53.38818708 -112.86474609 51.82958984 C-106.20684024 49.86611234 -102.14786475 47.99083352 -98.4375 41.75 C-96.57173094 38.02505047 -96.57173094 38.02505047 -96 34 C-106.936184 34 -118.47466231 38.93793512 -128.5 43 Z M-38 34 C-37.043419 35.77178053 -36.08467012 37.54239076 -35.125 39.3125 C-34.59132812 40.29863281 -34.05765625 41.28476562 -33.5078125 42.30078125 C-31.1603103 46.50317508 -29.99958743 48.28701815 -25.44921875 49.796875 C-24.52850586 50.11269531 -23.60779297 50.42851563 -22.65917969 50.75390625 C-21.67852539 51.08261719 -20.69787109 51.41132812 -19.6875 51.75 C-11.75555034 54.50132258 -4.51970601 57.49629805 2.734375 61.75 C4.86059633 63.16102578 4.86059633 63.16102578 7 63 C6.88416889 61.45761734 6.75683428 59.91609728 6.625 58.375 C6.52058594 57.08722656 6.52058594 57.08722656 6.4140625 55.7734375 C5.91718855 52.44531953 5.54332014 50.02587964 4 47 C1.37597439 45.16771975 -1.45848754 44.07572843 -4.4375 42.9375 C-5.27482666 42.60169922 -6.11215332 42.26589844 -6.97485352 41.91992188 C-16.57668879 38.18910716 -27.62186387 34 -38 34 Z M-165.62109375 64.93359375 C-170.03179095 70.6189752 -168.82936739 77.17237958 -168 84 C-167.46890625 83.60167969 -166.9378125 83.20335938 -166.390625 82.79296875 C-160 78 -160 78 -157.78125 76.8125 C-154.97771406 73.95977922 -155.32286469 70.60477573 -155.25 66.8125 C-155.20552734 65.68811523 -155.20552734 65.68811523 -155.16015625 64.54101562 C-155.0895921 62.69458693 -155.04251524 60.84728739 -155 59 C-159.21169631 59 -162.49573468 62.39500353 -165.62109375 64.93359375 Z M22 59 C21.39871119 69.07317931 21.39871119 69.07317931 25.22265625 78.03125 C28.29747651 80.75655832 31.31757443 83.15878722 35 85 C36.47103866 74.35990463 36.47103866 74.35990463 32.62109375 64.8671875 C27.85322343 60.66287439 27.85322343 60.66287439 22 59 Z M-124.625 71.6875 C-125.7078125 72.23180664 -125.7078125 72.23180664 -126.8125 72.78710938 C-131.72020229 75.28082453 -136.4159689 77.94397927 -141 81 C-140.40246826 116.36301484 -124.75618628 149.20938231 -100 174 C-92.37517862 181.00719962 -83.8721377 186.70859332 -75 192 C-74.01644531 192.60070312 -73.03289062 193.20140625 -72.01953125 193.8203125 C-68.07353237 195.3619576 -66.08812198 195.10265977 -62 194 C-58.97887715 192.61429036 -56.18861784 190.95236721 -53.375 189.1875 C-52.58738281 188.69902588 -51.79976563 188.21055176 -50.98828125 187.70727539 C-44.08160367 183.29303807 -38.17600062 178.21264948 -32.41552734 172.40820312 C-31.08744092 171.08698848 -29.71104609 169.81484179 -28.33203125 168.546875 C-7.8623415 149.37835933 1.45959565 121.74175692 7 95 C7.15645996 94.30825684 7.31291992 93.61651367 7.47412109 92.90380859 C8.29933915 89.11952462 8.82629479 85.81013711 8 82 C5.23908069 78.57441493 1.9027604 76.92504255 -2 75 C-3.24000044 74.33391981 -4.47821667 73.66450987 -5.71484375 72.9921875 C-9.10173318 71.19495592 -12.44818844 69.45127784 -16 68 C-16.66 68.33 -17.32 68.66 -18 69 C-17.5968457 69.71542969 -17.19369141 70.43085937 -16.77832031 71.16796875 C-15.26345266 73.85835977 -13.75031168 76.54971277 -12.23828125 79.24169922 C-11.26953135 80.96525079 -10.29884785 82.68771509 -9.328125 84.41015625 C-8.09305778 86.61011974 -6.86618924 88.81470925 -5.64819336 91.02416992 C-4.65814551 92.8117115 -3.64916248 94.5892279 -2.60375977 96.3449707 C-0.68676568 99.71899458 0.02584539 101.69803425 -0.30859375 105.60546875 C-0.68113281 106.78753906 -1.05367187 107.96960938 -1.4375 109.1875 C-1.63561279 109.83259521 -1.83372559 110.47769043 -2.0378418 111.14233398 C-2.65650226 113.10878184 -3.31995907 115.05402132 -4 117 C-4.37898437 118.11117187 -4.75796875 119.22234375 -5.1484375 120.3671875 C-12.11479985 139.48961839 -25.74641831 166.37320916 -45 176 C-47.98043491 176.12378623 -50.93651169 176.1884689 -53.91796875 176.203125 C-54.80857498 176.20882507 -55.69918121 176.21452515 -56.61677551 176.22039795 C-58.50565399 176.22985582 -60.39454903 176.23638505 -62.28344727 176.24023438 C-65.15866424 176.24990303 -68.03315513 176.28090335 -70.90820312 176.3125 C-72.74478743 176.31903385 -74.58137684 176.32428282 -76.41796875 176.328125 C-77.27239059 176.3404718 -78.12681244 176.3528186 -79.00712585 176.36553955 C-85.6196038 176.34115632 -91.28098552 175.20056211 -96.17578125 170.35546875 C-96.68850586 169.85112305 -97.20123047 169.34677734 -97.72949219 168.82714844 C-98.25188477 168.28606445 -98.77427734 167.74498047 -99.3125 167.1875 C-99.87227539 166.61418945 -100.43205078 166.04087891 -101.00878906 165.45019531 C-116.4242159 149.27936864 -126.20610335 129.45651838 -132 108 C-132.37640625 106.74574219 -132.7528125 105.49148437 -133.140625 104.19921875 C-133.77817336 97.78268094 -128.98395665 92.08583127 -125.75 86.875 C-125.04618556 85.7108371 -124.34434414 84.54547898 -123.64453125 83.37890625 C-122.3511888 81.2266454 -121.04851179 79.07994539 -119.73339844 76.94091797 C-118.01134628 74.01925032 -116.48051695 71.05009182 -115 68 C-118.51325185 68 -121.54001878 70.12551944 -124.625 71.6875 Z M22 94 C21.82984375 95.0415625 21.6596875 96.083125 21.484375 97.15625 C21.24078059 98.60436857 20.99588816 100.05226914 20.75 101.5 C20.55845337 102.64239136 20.55845337 102.64239136 20.36303711 103.80786133 C19.67208344 107.76158385 18.87633009 111.62079669 17.76953125 115.48046875 C17.5694043 116.18816406 17.36927734 116.89585938 17.16308594 117.625 C16.77095739 118.97162682 16.35708411 120.31216381 15.91894531 121.64453125 C15.25140913 123.7514356 15.25140913 123.7514356 15 127 C16.29214986 129.02685138 17.62493561 131.02845855 19 133 C19.11490999 138.786539 15.77326602 143.94499304 13.125 148.9375 C12.63974854 149.85885742 12.15449707 150.78021484 11.65454102 151.72949219 C0.24575885 172.87712058 0.24575885 172.87712058 -6 176 C-7.33343222 175.81320454 -8.66674887 175.62558364 -10 175.4375 C-13.37627755 175.39986633 -14.67983162 175.74609163 -17.359375 177.87109375 C-19.01538228 179.60557197 -20.64950816 181.36110677 -22.265625 183.1328125 C-29.61410928 190.83822316 -38.73171517 196.8532775 -48 202 C-45.07812277 203.59558733 -42.38248126 204.51266354 -39.125 205.1875 C-38.30257812 205.36667969 -37.48015625 205.54585938 -36.6328125 205.73046875 C-31.90169123 206.21481203 -28.98085621 205.67538588 -25.02734375 202.953125 C-23.98521497 202.06619975 -22.95580289 201.16418161 -21.9375 200.25 C-21.38022217 199.76192871 -20.82294434 199.27385742 -20.2487793 198.77099609 C4.96651223 176.4021931 22.11492171 149.64466156 31 117 C31.34804687 115.81921875 31.69609375 114.6384375 32.0546875 113.421875 C33.43591429 107.8604069 33.43591429 107.8604069 31.69140625 102.6015625 C28.83558498 99.19914318 25.57485829 96.61361862 22 94 Z M-159.98046875 96.6171875 C-164.20410325 100.82447912 -164.20410325 100.82447912 -166.4765625 106.19140625 C-166.27723179 108.92033865 -165.70211435 111.35173375 -165 114 C-164.68964451 115.3345286 -164.37978868 116.66917346 -164.0703125 118.00390625 C-156.38306241 149.41032303 -137.70727674 178.26061373 -113 199 C-112.26265625 199.70511719 -111.5253125 200.41023438 -110.765625 201.13671875 C-107.67530248 203.92568003 -105.46326817 205.85305228 -101.23828125 206.27734375 C-95.99282501 205.88375563 -90.98016607 204.66005536 -86 203 C-88.72881872 200.07671374 -91.34610159 198.09514964 -94.8125 196.125 C-100.86572398 192.3968014 -105.79632398 187.7529707 -110.87231445 182.79931641 C-111.48034912 182.20940918 -112.08838379 181.61950195 -112.71484375 181.01171875 C-113.52103149 180.21447388 -113.52103149 180.21447388 -114.34350586 179.40112305 C-116.17197046 177.85454113 -117.76554686 176.86646442 -120 176 C-121.258125 176.12375 -122.51625 176.2475 -123.8125 176.375 C-126.5305779 176.43789095 -127.61386591 176.32273486 -129.72485352 174.55834961 C-134.07197308 169.3847961 -137.71437097 164.01726375 -141.125 158.1875 C-141.64344482 157.30819824 -142.16188965 156.42889648 -142.69604492 155.52294922 C-152.04456511 139.49564613 -152.04456511 139.49564613 -151.9375 133.5 C-151 131 -151 131 -149 128 C-149.39162116 122.36065523 -150.59495897 116.97996302 -151.9375 111.5 C-152.10701172 110.79230469 -152.27652344 110.08460937 -152.45117188 109.35546875 C-153.60337685 104.56264652 -154.79939307 99.78089219 -156 95 C-158.1679541 94.78917042 -158.1679541 94.78917042 -159.98046875 96.6171875 Z M-179 123 C-183.95445956 130.78012292 -183.95445956 130.78012292 -186.078125 139.5234375 C-185.3103858 142.19179934 -184.22553173 144.50480381 -183 147 C-182.42906155 148.360308 -181.86593501 149.72390844 -181.30859375 151.08984375 C-174.71865746 166.95850636 -165.97860467 180.7816884 -155.36328125 194.25390625 C-154.16147911 195.79317719 -152.99932958 197.36323216 -151.84375 198.9375 C-148.46581796 203.25682293 -146.01093128 205.43810075 -140.5625 206.5625 C-135.70377976 207.09858785 -130.88215885 207.16007078 -126 207 C-126.69609375 206.31035156 -127.3921875 205.62070313 -128.109375 204.91015625 C-131.2119071 201.80435143 -134.24509046 198.63768408 -137.25 195.4375 C-137.82137695 194.83341309 -138.39275391 194.22932617 -138.98144531 193.60693359 C-142.66061876 189.64959892 -145.73232089 185.60370332 -148.75 181.125 C-150.74208361 178.15958477 -150.74208361 178.15958477 -153 176 C-155.4714121 175.65651561 -157.38933665 175.96217749 -159.83984375 176.35546875 C-162 176 -162 176 -164.19140625 173.55078125 C-166.15241655 170.36941621 -167.83558291 167.55571043 -169 164 C-168.23828125 161.41796875 -168.23828125 161.41796875 -167 159 C-165.92050544 155.20593436 -165.99544048 153.10038493 -167.546875 149.48828125 C-167.8975 148.64716797 -168.248125 147.80605469 -168.609375 146.93945312 C-168.98578125 146.07255859 -169.3621875 145.20566406 -169.75 144.3125 C-172.33329888 138.24636066 -174.61628079 132.30720433 -176.29785156 125.92260742 C-176.82272497 123.80249674 -176.82272497 123.80249674 -179 123 Z M44 123 C43.8141333 123.57331055 43.6282666 124.14662109 43.43676758 124.73730469 C42.56707964 127.40988656 41.69057053 130.08016048 40.8125 132.75 C40.49877441 133.7090625 40.18504883 134.668125 39.86181641 135.65625 C37.79781321 141.87451917 35.50118231 147.76688014 32.5546875 153.625 C31.69695568 156.11932018 31.69695568 156.11932018 33.38671875 158.59765625 C33.91910156 159.39042969 34.45148438 160.18320313 35 161 C34.89975346 166.51355993 33.17582779 169.59481952 30 174 C30 174.66 30 175.32 30 176 C29.35716064 175.91081299 28.71432129 175.82162598 28.05200195 175.72973633 C22.76076967 175.26710601 22.76076967 175.26710601 18.07177734 177.38427734 C16.29319285 179.40336721 14.73260126 181.48462038 13.1875 183.6875 C12.0074709 185.24817306 10.82114666 186.80410423 9.62890625 188.35546875 C9.03480957 189.13583496 8.44071289 189.91620117 7.82861328 190.72021484 C4.51326564 194.8535548 0.72113674 198.48088979 -3.08911133 202.15112305 C-4.40511556 203.42138547 -5.70451425 204.70881819 -7 206 C-7 206.33 -7 206.66 -7 207 C-3.97578406 207.09915462 -1.02093375 207.08781784 2 207 C3.299375 207.02320313 3.299375 207.02320313 4.625 207.046875 C10.31896201 206.68272627 13.54078076 204.98729548 17.43676758 200.76733398 C20.11029188 197.61886442 22.58183388 194.34733658 25 191 C25.50708496 190.30213379 26.01416992 189.60426758 26.53662109 188.88525391 C44.48482172 164.72828741 44.48482172 164.72828741 52.125 136.75 C50.72928896 132.09762985 48.79656129 127.98139723 46 124 C45.34 123.67 44.68 123.34 44 123 Z M-73.375 213.9375 C-76.91184077 215.29669914 -80.26303649 216.35452448 -84 217 C-80.88652003 219.5385688 -77.75017174 221.16890493 -74.0625 222.75 C-73.04285156 223.19859375 -72.02320313 223.6471875 -70.97265625 224.109375 C-65.3174291 225.80371375 -61.33608554 223.38177798 -56.1875 220.9375 C-55.02605469 220.38964844 -53.86460937 219.84179688 -52.66796875 219.27734375 C-51.78753906 218.85582031 -50.90710938 218.43429688 -50 218 C-53.10965283 216.36798362 -56.26690587 215.08562641 -59.5625 213.875 C-60.98755859 213.34519531 -60.98755859 213.34519531 -62.44140625 212.8046875 C-66.73885302 211.45312409 -69.29616418 212.36742758 -73.375 213.9375 Z " fill="#E11B24" transform="translate(201,11)"/>
<path d="M0 0 C11.22 0 22.44 0 34 0 C34 0.33 34 0.66 34 1 C29.71 1.33 25.42 1.66 21 2 C21.74443359 3.19882813 21.74443359 3.19882813 22.50390625 4.421875 C23.52291016 6.06929688 23.52291016 6.06929688 24.5625 7.75 C25.1045105 8.62060059 25.1045105 8.62060059 25.6574707 9.50878906 C28.73063511 14.47587255 31.53627635 19.56753134 34.26171875 24.734375 C35.83208027 27.23509984 35.83208027 27.23509984 38.70703125 27.828125 C39.46371094 27.88484375 40.22039062 27.9415625 41 28 C39.68 28.66 38.36 29.32 37 30 C38.237752 32.13301923 39.48914825 34.25569599 40.75 36.375 C41.09804687 36.97828125 41.44609375 37.5815625 41.8046875 38.203125 C43.79365866 41.51807693 45.25896388 43.73613645 49 45 C48.01 45.495 48.01 45.495 47 46 C48.09562714 47.9631237 49.20180549 49.92036163 50.3125 51.875 C51.23482422 53.51082031 51.23482422 53.51082031 52.17578125 55.1796875 C53.86057646 58.19404845 53.86057646 58.19404845 57 60 C56.01 60.495 56.01 60.495 55 61 C56.33231658 63.22977983 57.6656624 65.45892968 59 67.6875 C59.4115332 68.37521484 59.82306641 69.06292969 60.24707031 69.77148438 C62.70753824 73.87415838 65.21005524 77.94585741 67.75 82 C68.74219811 83.6489194 69.73439389 85.29784019 70.7265625 86.94677734 C71.68732229 88.49585516 72.67678732 90.02718215 73.6796875 91.54931641 C86.25284682 110.65773338 86.25284682 110.65773338 84.72045898 118.65161133 C83.73395279 121.92095513 82.43928722 124.89685593 81 128 C80.22594506 130.20720617 79.4549826 132.41549992 78.6875 134.625 C71.15143892 153.14544102 57.81016094 178.59491953 39 188 C36.01956509 188.12378623 33.06348831 188.1884689 30.08203125 188.203125 C29.19142502 188.20882507 28.30081879 188.21452515 27.38322449 188.22039795 C25.49434601 188.22985582 23.60545097 188.23638505 21.71655273 188.24023438 C18.84133576 188.24990303 15.96684487 188.28090335 13.09179688 188.3125 C11.25521257 188.31903385 9.41862316 188.32428282 7.58203125 188.328125 C6.72760941 188.3404718 5.87318756 188.3528186 4.99287415 188.36553955 C-1.79918651 188.34049412 -7.38514642 187.09962047 -12.39453125 182.13671875 C-12.95245361 181.58717529 -13.51037598 181.03763184 -14.08520508 180.47143555 C-14.6552124 179.88273682 -15.22521973 179.29403809 -15.8125 178.6875 C-16.41924561 178.06721924 -17.02599121 177.44693848 -17.65112305 176.80786133 C-33.24102464 160.50979571 -43.14555764 140.67843943 -49 119 C-49.37640625 117.74703125 -49.7528125 116.4940625 -50.140625 115.203125 C-50.7799982 108.76983587 -45.98291554 103.04427686 -42.75 97.8125 C-42.04623798 96.63983343 -41.34439683 95.46601181 -40.64453125 94.29101562 C-38.22013278 90.2449226 -35.78758451 86.20836799 -33.21191406 82.2565918 C-32.81198242 81.5119165 -32.41205078 80.76724121 -32 80 C-32.495 79.01 -32.495 79.01 -33 78 C-32.42765625 77.80664062 -31.8553125 77.61328125 -31.265625 77.4140625 C-28.05902141 75.41269957 -26.58429896 72.57720945 -24.75 69.375 C-24.17390991 68.39358032 -24.17390991 68.39358032 -23.58618164 67.39233398 C-19.37308543 60.10810556 -15.65373844 52.57628053 -12 45 C-12.99 44.67 -13.98 44.34 -15 44 C-14.26394531 43.98066406 -13.52789062 43.96132813 -12.76953125 43.94140625 C-8.7062855 42.56024655 -7.55076439 39.554425 -5.6875 35.9375 C-5.32849609 35.27427734 -4.96949219 34.61105469 -4.59960938 33.92773438 C-3.71774023 32.29333689 -2.85679406 30.64768088 -2 29 C-3.32 28.67 -4.64 28.34 -6 28 C-4.84757812 27.89751953 -4.84757812 27.89751953 -3.671875 27.79296875 C-0.87633627 27.25522158 -0.87633627 27.25522158 0.484375 24.98828125 C0.90203125 24.10527344 1.3196875 23.22226562 1.75 22.3125 C4.19994496 17.43826395 6.89900439 12.87510975 9.875 8.3125 C10.48359863 7.37627808 10.48359863 7.37627808 11.10449219 6.42114258 C12.06647451 4.9453461 13.03275921 3.47235542 14 2 C7.07 1.505 7.07 1.505 0 1 C0 0.67 0 0.34 0 0 Z " fill="#1E2352" transform="translate(117,0)"/>
<path d="M0 0 C0.99 0.495 0.99 0.495 2 1 C2 3.64 2 6.28 2 9 C2.66 9 3.32 9 4 9 C3.45436914 13.28051249 2.02210573 15.76327675 -0.5625 19.1875 C-1.284375 20.14527344 -2.00625 21.10304687 -2.75 22.08984375 C-3.86375 23.53037109 -3.86375 23.53037109 -5 25 C-5.680625 25.88816406 -6.36125 26.77632812 -7.0625 27.69140625 C-16.50188158 39.76717761 -27.78454821 49.22620483 -41 57 C-39.12922332 57.53580497 -37.2531083 58.05298887 -35.375 58.5625 C-34.33085937 58.85253906 -33.28671875 59.14257812 -32.2109375 59.44140625 C-27.13146671 60.32506114 -24.26245574 59.8738817 -19.9921875 56.91796875 C-18.94127875 56.02151681 -17.9026848 55.11048387 -16.875 54.1875 C-16.31876953 53.70192627 -15.76253906 53.21635254 -15.18945312 52.71606445 C-8.17028088 46.50885578 -1.19658915 39.99496927 4.69921875 32.69921875 C7 30 7 30 9.3125 29.125 C9.869375 29.08375 10.42625 29.0425 11 29 C11 29.66 11 30.32 11 31 C12.65 31.33 14.3 31.66 16 32 C15.67 33.32 15.34 34.64 15 36 C15.66 36 16.32 36 17 36 C17 36.66 17 37.32 17 38 C16.01 38 15.02 38 14 38 C13.8453125 39.670625 13.8453125 39.670625 13.6875 41.375 C13.3471875 43.169375 13.3471875 43.169375 13 45 C12.01 45.66 11.02 46.32 10 47 C9.67 46.67 9.34 46.34 9 46 C8.54625 46.825 8.0925 47.65 7.625 48.5 C7.08875 49.325 6.5525 50.15 6 51 C5.34 51 4.68 51 4 51 C4.103125 51.721875 4.20625 52.44375 4.3125 53.1875 C3.87550935 57.12041589 1.89917803 58.46321923 -1 61 C1.6947839 61.10168996 4.30850383 61.09764103 7 61 C7.87914062 60.98066406 8.75828125 60.96132812 9.6640625 60.94140625 C14.26290452 60.5203855 17.06234449 59.87886833 20.4921875 56.6640625 C22.78354947 53.84807893 24.90995577 50.96769953 27 48 C32.60017501 40.81227538 32.60017501 40.81227538 37 40 C40.1628485 39.19595537 40.1628485 39.19595537 43 38 C43.33 37.01 43.66 36.02 44 35 C44.99 35.66 45.98 36.32 47 37 C47.66 37 48.32 37 49 37 C49 37.66 49 38.32 49 39 C49.66 39 50.32 39 51 39 C50.41747849 43.22328092 47.94284694 46.27159197 45.5 49.625 C45.05438721 50.24310547 44.60877441 50.86121094 44.1496582 51.49804688 C40.68985412 56.22291642 36.96405542 60.61511803 32.9453125 64.87890625 C31.30292181 66.66970574 29.94970564 68.45369893 28.5625 70.4375 C21.0055784 77.9944216 6.15097582 77.58183028 -4 78 C-5.65309741 77.95819828 -7.30580061 77.89365822 -8.95703125 77.8046875 C-20.70475668 77.17424051 -27.18534732 79.43774452 -36.99121094 85.78955078 C-40.44320304 87.86964033 -44.10727751 89.4299335 -47.8125 91 C-48.48885498 91.29011963 -49.16520996 91.58023926 -49.86206055 91.87915039 C-56.90567582 94.86409985 -62.85553375 96.46370647 -70.15625 93.56640625 C-71.61150907 92.91458882 -73.0592597 92.24580982 -74.5 91.5625 C-75.28262207 91.20994141 -76.06524414 90.85738281 -76.87158203 90.49414062 C-80.75413723 88.70303659 -84.4372709 86.7962992 -88.0234375 84.46484375 C-98.17307777 77.90460085 -105.50314174 77.32220057 -117.43457031 77.94091797 C-121.7226857 78.03967358 -125.93073915 77.60445059 -130.1875 77.125 C-131.317323 77.00620483 -131.317323 77.00620483 -132.4699707 76.88500977 C-147.69873993 75.13766792 -153.43121267 69.59942272 -162.9375 57.8125 C-163.4104248 57.23081055 -163.88334961 56.64912109 -164.37060547 56.04980469 C-167.13833478 52.51298242 -168.82836684 49.41203574 -170 45 C-168.6875 43.5 -168.6875 43.5 -167 42 C-166.01 42 -165.02 42 -164 42 C-161.99690671 41.68578929 -159.99628664 41.3548954 -158 41 C-155 44.75 -155 44.75 -155 47 C-155.495 47.495 -155.495 47.495 -156 48 C-154.68798827 49.56249809 -154.68798827 49.56249809 -153 51 C-152.01 51 -151.02 51 -150 51 C-146.89096144 52.51465981 -145.24376542 53.61560069 -143.375 56.5625 C-139.1990862 60.84830627 -133.28032035 60.85112787 -127.50390625 61.11328125 C-125.66890852 61.12309407 -123.83371883 61.06919694 -122 61 C-122.309375 60.38125 -122.61875 59.7625 -122.9375 59.125 C-123.625 57.75 -124.3125 56.375 -125 55 C-125.99 54.67 -126.98 54.34 -128 54 C-127.67 52.68 -127.34 51.36 -127 50 C-125.02 49.505 -125.02 49.505 -123 49 C-123.66 47.68 -124.32 46.36 -125 45 C-123.88625 45.5259375 -123.88625 45.5259375 -122.75 46.0625 C-120.14261111 47.27799846 -120.14261111 47.27799846 -118.1640625 46.30078125 C-116 46 -116 46 -113.4140625 47.6953125 C-112.49367187 48.49710938 -111.57328125 49.29890625 -110.625 50.125 C-109.64789063 50.95 -108.67078125 51.775 -107.6640625 52.625 C-105 55 -105 55 -103.3359375 56.75 C-101.16417575 58.98526355 -99.52101979 59.97096727 -96.40625 60.14453125 C-91.34721641 59.7841431 -86.73752196 58.84878906 -82 57 C-80.67088318 56.65023242 -79.33917261 56.30903983 -78 56 C-78 54.35 -78 52.7 -78 51 C-75.33333333 50.33333333 -72.66666667 49.66666667 -70 49 C-70 48.34 -70 47.68 -70 47 C-68.7315625 47.5259375 -68.7315625 47.5259375 -67.4375 48.0625 C-61.96138775 49.55598516 -57.74475143 48.59688999 -52.8359375 45.91796875 C-51.33860829 45.02494206 -49.8519371 44.11386291 -48.375 43.1875 C-47.58810791 42.69975098 -46.80121582 42.21200195 -45.99047852 41.70947266 C-38.49302184 36.91957915 -32.26454088 31.27321753 -26 25 C-24.78957031 23.89591797 -24.78957031 23.89591797 -23.5546875 22.76953125 C-16.71955026 16.4226181 -11.94562762 8.83659992 -7 1 C-6.01 2.485 -6.01 2.485 -5 4 C-5.99 4.99 -6.98 5.98 -8 7 C-4.59679258 5.98823563 -3.24274669 5.35156418 -1.1875 2.375 C-0.795625 1.59125 -0.40375 0.8075 0 0 Z M-68.375 68.9375 C-71.91184077 70.29669914 -75.26303649 71.35452448 -79 72 C-75.88652003 74.5385688 -72.75017174 76.16890493 -69.0625 77.75 C-68.04285156 78.19859375 -67.02320313 78.6471875 -65.97265625 79.109375 C-60.3174291 80.80371375 -56.33608554 78.38177798 -51.1875 75.9375 C-50.02605469 75.38964844 -48.86460937 74.84179688 -47.66796875 74.27734375 C-46.78753906 73.85582031 -45.90710938 73.43429688 -45 73 C-48.10965283 71.36798362 -51.26690587 70.08562641 -54.5625 68.875 C-55.98755859 68.34519531 -55.98755859 68.34519531 -57.44140625 67.8046875 C-61.73885302 66.45312409 -64.29616418 67.36742758 -68.375 68.9375 Z " fill="#E21B24" transform="translate(196,156)"/>
<path d="M0 0 C15.99071924 -0.70239002 30.70638323 0.51118813 46.26220703 4.34277344 C48.69759471 4.92740547 51.12965628 5.41750541 53.58984375 5.8828125 C59.09064341 7.08428899 63.33569145 8.69159607 66.69140625 13.3828125 C69.19399984 17.41299559 71.11519929 21.65555909 73 26 C73.6340079 27.36454407 74.27064641 28.72786956 74.91015625 30.08984375 C76.4028554 33.35334636 77.86376148 36.59128443 79 40 C78.505 40.99 78.505 40.99 78 42 C75.69 37.38 73.38 32.76 71 28 C70.67 30.31 70.34 32.62 70 35 C69.34 35.99 68.68 36.98 68 38 C66.35 37.34 64.7 36.68 63 36 C63 37.32 63 38.64 63 40 C61.02 40.495 61.02 40.495 59 41 C59.020625 41.94875 59.04125 42.8975 59.0625 43.875 C59 47 59 47 58 49 C58.66 49 59.32 49 60 49 C59.67 50.32 59.34 51.64 59 53 C57.741875 52.608125 56.48375 52.21625 55.1875 51.8125 C51.58295411 50.72131035 47.96513542 49.72320864 44.31640625 48.79296875 C43.06790894 48.47332153 43.06790894 48.47332153 41.79418945 48.1472168 C40.12363277 47.72224359 38.45161947 47.30294786 36.77807617 46.88989258 C29.80837411 45.11307826 24.52768341 43.69635329 20.62890625 37.1640625 C20.29761719 36.57367188 19.96632812 35.98328125 19.625 35.375 C19.27050781 34.776875 18.91601562 34.17875 18.55078125 33.5625 C16 29.2094293 16 29.2094293 16 28 C24.31366466 27.03454217 31.61727923 28.64672862 39.625 30.75 C40.58994385 31.00217285 41.5548877 31.2543457 42.54907227 31.51416016 C48.8959569 33.24812796 54.94734267 35.42419008 61 38 C60.00630269 35.71359009 58.98298486 33.45011649 57.9375 31.1875 C57.66228516 30.54490234 57.38707031 29.90230469 57.10351562 29.24023438 C55.46202532 25.75883186 54.39189363 24.2343176 51.0078125 22.2109375 C45.80251866 20.41173893 40.3346133 19.46990006 34.9375 18.4375 C33.26892944 18.09912109 33.26892944 18.09912109 31.56665039 17.75390625 C26.89002255 16.8262881 22.3002571 15.91748418 17.53125 15.69140625 C13.99245345 15.50292687 11.28410997 15.33865696 8 14 C5.08606947 10.68534957 0 4.71924295 0 0 Z " fill="#DC1C24" transform="translate(137,1)"/>
<path d="M0 0 C3.31246564 3.76830954 4.75806034 8.14867886 6.5625 12.75 C9.31314778 19.51494785 12.39075734 25.85842829 16.25 32.0625 C16.66193604 32.73442383 17.07387207 33.40634766 17.49829102 34.09863281 C20.38793887 38.62192456 20.38793887 38.62192456 25 41 C26.32 41 27.64 41 29 41 C30.68756133 41.96432076 32.35666496 42.96210419 34 44 C34.66 44 35.32 44 36 44 C36.19785783 40.43855901 36.11103658 37.95545121 34 35 C31.94999129 34.19471111 31.94999129 34.19471111 30 34 C28.875 28.25 28.875 28.25 30 26 C30.78310547 27.09054688 30.78310547 27.09054688 31.58203125 28.203125 C40.70421773 40.66425539 50.47618834 52.06231928 63.703125 60.34765625 C64.34145264 60.74766846 64.97978027 61.14768066 65.63745117 61.55981445 C66.89753521 62.33887719 68.16577056 63.10494337 69.44262695 63.85620117 C73.80718844 66.51588439 73.80718844 66.51588439 74.90234375 69.265625 C74.93457031 69.83796875 74.96679688 70.4103125 75 71 C68.25 73.125 68.25 73.125 66 72 C66.33 72.99 66.66 73.98 67 75 C66.67 75.66 66.34 76.32 66 77 C60.55572791 77.56745434 57.57167794 75.88081789 53.375 72.6875 C52.77324951 72.24398193 52.17149902 71.80046387 51.55151367 71.34350586 C44.81088192 66.27675195 37.87826874 60.63620451 32.4609375 54.16015625 C31.02385344 52.76873117 31.02385344 52.76873117 28.80078125 53.0234375 C27.97964844 53.13945312 27.15851563 53.25546875 26.3125 53.375 C23.28049081 53.41875194 21.55893144 53.35815024 18.98828125 51.7109375 C10.35317654 42.62325917 -4 22.79811014 -4 9.75 C-2.79110252 6.42553192 -1.47881522 3.2148157 0 0 Z " fill="#E31C25" transform="translate(52,135)"/>
<path d="M0 0 C7 8.75 7 8.75 7 13 C8.65 13.33 10.3 13.66 12 14 C12 14.66 12 15.32 12 16 C13.3303125 15.443125 13.3303125 15.443125 14.6875 14.875 C18.40826005 13.89215772 19.67438135 14.23937836 23 16 C22.67 14.02 22.34 12.04 22 10 C25.30184761 13.12766758 28.03488741 16.55583766 30.75 20.1875 C34.91940517 25.69501146 39.30648409 30.92628308 44 36 C42.68 36.99 41.36 37.98 40 39 C39.01 38.505 39.01 38.505 38 38 C38 38.66 38 39.32 38 40 C37.360625 40.268125 36.72125 40.53625 36.0625 40.8125 C33.66868314 41.88667752 33.66868314 41.88667752 33 45 C33.61875 45.144375 34.2375 45.28875 34.875 45.4375 C37 46 37 46 39 47 C38.67 48.32 38.34 49.64 38 51 C30.15098215 44.36356528 22.9748583 37.23777267 17.421875 28.5234375 C16.05712656 26.40132867 14.9214987 24.63892536 13 23 C10.81114368 22.7610593 10.81114368 22.7610593 8.5 23.0625 C6.18359375 23.29296875 6.18359375 23.29296875 4 23 C1.26178544 20.37805782 -0.33598947 17.37810834 -2 14 C-2.53625 12.989375 -3.0725 11.97875 -3.625 10.9375 C-4.18440507 6.55549362 -2.25394602 3.66964766 0 0 Z " fill="#DF1C24" transform="translate(35,165)"/>
<path d="M0 0 C3.31265248 3.76852208 4.75741614 8.14875203 6.5625 12.75 C11.90606883 25.8547354 19.06737055 37.23655414 28.28515625 47.9609375 C30 50 30 50 31 52 C27.61697341 53.69151329 24.60306166 53.91038213 21 53 C10.10892588 45.45307312 -0.2382515 25.50839071 -4 13 C-4 8.22086979 -1.97505362 4.29359483 0 0 Z " fill="#1F224E" transform="translate(52,135)"/>
<path d="M0 0 C6.01672944 7.42063298 6.01672944 7.42063298 5.92578125 10.5703125 C4.63378202 15.35670629 2.49762594 19.50309756 0.1875 23.875 C-0.29517334 24.7937793 -0.77784668 25.71255859 -1.27514648 26.65917969 C-13.09841793 48.54920897 -13.09841793 48.54920897 -20 52 C-22.6723621 52.13415472 -25.32250488 52.04318541 -28 52 C-28 47.98245059 -25.99898558 46.21065203 -23.5625 43.25 C-13.5999977 30.70666749 -4.07283189 15.58300895 0 0 Z " fill="#21214D" transform="translate(215,136)"/>
<path d="M0 0 C2.73043613 2.20196462 3.92777371 3.79937142 5.125 7.125 C4.94427506 12.72747308 2.33761622 16.58927679 -1 21 C-3 22 -3 22 -6.71484375 21.58984375 C-9.42200972 21.55990669 -10.60867179 21.69213196 -12.75830078 23.38330078 C-14.48205233 25.37296399 -16.03456737 27.41886151 -17.5625 29.5625 C-18.62213712 30.98358389 -19.68593615 32.40157406 -20.75390625 33.81640625 C-21.27484863 34.51137207 -21.79579102 35.20633789 -22.33251953 35.92236328 C-24.96734735 39.2052893 -27.94576298 42.11033179 -31 45 C-31.33 43.68 -31.66 42.36 -32 41 C-31.34 41 -30.68 41 -30 41 C-29.855625 40.38125 -29.71125 39.7625 -29.5625 39.125 C-29 37 -29 37 -28 35 C-27.34 35 -26.68 35 -26 35 C-23.98821609 32.66633067 -22.98404829 30.95214486 -22 28 C-21.01 28 -20.02 28 -19 28 C-19 27.34 -19 26.68 -19 26 C-19.66 26 -20.32 26 -21 26 C-20.67 24.68 -20.34 23.36 -20 22 C-22.64 21.34 -25.28 20.68 -28 20 C-26.34832443 16.4213696 -24.21713508 13.25179812 -22 10 C-21.01 11.485 -21.01 11.485 -20 13 C-17.45954713 16.53678072 -17.45954713 16.53678072 -14 19 C-13.67 18.34 -13.34 17.68 -13 17 C-12.01 17 -11.02 17 -10 17 C-8.4935783 14.93575481 -7.20832354 12.95213206 -5.9375 10.75 C-5.4105957 9.87021484 -5.4105957 9.87021484 -4.87304688 8.97265625 C-3.1285626 6.03770161 -1.47190594 3.08108809 0 0 Z " fill="#D51C24" transform="translate(232,166)"/>
<path d="M0 0 C2.73043613 2.20196462 3.92777371 3.79937142 5.125 7.125 C4.94427506 12.72747308 2.33761622 16.58927679 -1 21 C-3.95664519 22.4783226 -6.74229737 22.06032783 -10 22 C-10.33 21.01 -10.66 20.02 -11 19 C-9.64481286 16.41603145 -8.25089229 14.01455739 -6.6875 11.5625 C-5.8568868 10.23120805 -5.02742474 8.89919707 -4.19921875 7.56640625 C-3.81169434 6.94652832 -3.42416992 6.32665039 -3.02490234 5.68798828 C-1.90351306 3.84108844 -0.90772868 1.96089456 0 0 Z " fill="#1E1F48" transform="translate(232,166)"/>
<path d="M0 0 C3.09164355 4.02363355 5.66175789 8.26739464 8.25 12.625 C8.72179688 13.40101563 9.19359375 14.17703125 9.6796875 14.9765625 C10.12054688 15.7190625 10.56140625 16.4615625 11.015625 17.2265625 C11.42071289 17.90283691 11.82580078 18.57911133 12.24316406 19.27587891 C12.49291992 19.84483887 12.74267578 20.41379883 13 21 C12.67 21.66 12.34 22.32 12 23 C6.95875831 23.78226164 6.95875831 23.78226164 4 23 C1.33731157 20.34310002 -0.30702677 17.33647647 -2 14 C-2.53625 12.989375 -3.0725 11.97875 -3.625 10.9375 C-4.18440507 6.55549362 -2.25394602 3.66964766 0 0 Z " fill="#1E1F49" transform="translate(35,165)"/>
<path d="M0 0 C11.22 0 22.44 0 34 0 C34 0.33 34 0.66 34 1 C27.565 1.495 27.565 1.495 21 2 C22.0209375 3.670625 22.0209375 3.670625 23.0625 5.375 C24.22265625 7.2734375 24.22265625 7.2734375 25 9 C24.67 9.66 24.34 10.32 24 11 C22.56138706 10.91253716 21.12402492 10.80434652 19.6875 10.6875 C18.88699219 10.62949219 18.08648437 10.57148438 17.26171875 10.51171875 C14.63727666 9.91793306 13.69179328 9.04219706 12 7 C12.66 5.35 13.32 3.7 14 2 C7.07 1.505 7.07 1.505 0 1 C0 0.67 0 0.34 0 0 Z " fill="#341A3A" transform="translate(117,0)"/>
<path d="M0 0 C4.91185365 4.61416555 9.96828966 9.93657931 13 16 C9.68827422 17.65586289 6.53165975 17.91937283 3 17 C0.23988865 14.63345049 -1.89166797 11.95166484 -4 9 C-3.01 8.67 -2.02 8.34 -1 8 C-1 8.99 -1 9.98 -1 11 C-0.01 11 0.98 11 2 11 C2.77802187 8.6984589 2.77802187 8.6984589 3 6 C1.62831762 3.80961577 1.62831762 3.80961577 0 2 C0 1.34 0 0.68 0 0 Z " fill="#1D1C3F" transform="translate(70,171)"/>
<path d="M0 0 C2.53326372 3.13642175 4.47344816 6.25994799 6 10 C5.6875 12.875 5.6875 12.875 5 15 C4.01 15.33 3.02 15.66 2 16 C1.67 15.34 1.34 14.68 1 14 C0.34 15.32 -0.32 16.64 -1 18 C-5.8 14.55384615 -5.8 14.55384615 -6.8125 11.75 C-6.9053125 10.88375 -6.9053125 10.88375 -7 10 C-4.525 10.99 -4.525 10.99 -2 12 C-0.70756464 7.8803623 0.26252625 4.33168317 0 0 Z " fill="#EF1A23" transform="translate(207,27)"/>
<path d="M0 0 C1.8871875 0.0309375 1.8871875 0.0309375 3.8125 0.0625 C2.66855098 2.04275639 1.52228896 4.02167678 0.375 6 C-0.26308594 7.10214844 -0.90117188 8.20429688 -1.55859375 9.33984375 C-3.1875 12.0625 -3.1875 12.0625 -4.1875 13.0625 C-6.52047433 13.10342937 -8.85455225 13.10491723 -11.1875 13.0625 C-10.341875 12.381875 -9.49625 11.70125 -8.625 11 C-5.75 8.20833333 -5.75 8.20833333 -6.375 4.25 C-6.643125 3.198125 -6.91125 2.14625 -7.1875 1.0625 C-4.43671116 0.14557039 -2.82801087 -0.04636083 0 0 Z " fill="#F21B25" transform="translate(128.1875,0.9375)"/>
<path d="M0 0 C0.66 0.33 1.32 0.66 2 1 C2 1.66 2 2.32 2 3 C3.65 3.33 5.3 3.66 7 4 C7.66 3.01 8.32 2.02 9 1 C10.9375 1.625 10.9375 1.625 13 3 C13.75 6.125 13.75 6.125 14 9 C12.6078125 8.690625 12.6078125 8.690625 11.1875 8.375 C7.84826598 7.63307034 7.84826598 7.63307034 5 10 C4.01 9.67 3.02 9.34 2 9 C1.67 8.01 1.34 7.02 1 6 C0.34 5.67 -0.32 5.34 -1 5 C-0.67 3.35 -0.34 1.7 0 0 Z " fill="#EE1B24" transform="translate(44,172)"/>
<path d="M0 0 C-1.76429199 4.97209562 -4.3939166 9.43438061 -7 14 C-7.14308594 13.38640625 -7.28617187 12.7728125 -7.43359375 12.140625 C-8.0270096 9.89792233 -8.90730275 8.03970153 -10 6 C-10.66 6 -11.32 6 -12 6 C-12 4.68 -12 3.36 -12 2 C-10.7625 1.67 -9.525 1.34 -8.25 1 C-7.55390625 0.814375 -6.8578125 0.62875 -6.140625 0.4375 C-4 0 -4 0 0 0 Z " fill="#E81E28" transform="translate(115,29)"/>
<path d="M0 0 C-0.52268466 2.76276177 -1.10869587 5.3260876 -2 8 C-1.34 8 -0.68 8 0 8 C0.33 6.68 0.66 5.36 1 4 C1.33 6.64 1.66 9.28 2 12 C-0.07553648 12.5534764 -1.84365964 13 -4 13 C-4.33 9.37 -4.66 5.74 -5 2 C-2 0 -2 0 0 0 Z M-1 13 C-0.67 14.32 -0.34 15.64 0 17 C-2.475 16.01 -2.475 16.01 -5 15 C-5.33 15.66 -5.66 16.32 -6 17 C-6 16.01 -6 15.02 -6 14 C-4.35 13.67 -2.7 13.34 -1 13 Z " fill="#F01A25" transform="translate(213,62)"/>
<path d="M0 0 C7.02952752 0.4535179 12.5849443 2.12059087 19 5 C16.92446352 5.5534764 15.15634036 6 13 6 C13 5.34 13 4.68 13 4 C11.35 4 9.7 4 8 4 C8.33 4.99 8.66 5.98 9 7 C8.34 7 7.68 7 7 7 C7 7.66 7 8.32 7 9 C4 8 4 8 2.83203125 6.15234375 C2.49558594 5.42144531 2.15914062 4.69054687 1.8125 3.9375 C1.46832031 3.20402344 1.12414062 2.47054687 0.76953125 1.71484375 C0.51558594 1.14894531 0.26164063 0.58304688 0 0 Z " fill="#B51C25" transform="translate(171,60)"/>
<path d="M0 0 C6.16360944 5.9747899 11.08026344 12.99310248 16 20 C11.125 18.125 11.125 18.125 10 17 C9.34 17.33 8.68 17.66 8 18 C7.82984375 17.36191406 7.6596875 16.72382813 7.484375 16.06640625 C7.24203125 15.24011719 6.9996875 14.41382813 6.75 13.5625 C6.51796875 12.73878906 6.2859375 11.91507813 6.046875 11.06640625 C5.19229321 8.80004532 5.19229321 8.80004532 2.890625 8.21484375 C2.26671875 8.14394531 1.6428125 8.07304687 1 8 C0 2.25 0 2.25 0 0 Z " fill="#C71F29" transform="translate(81,161)"/>
<path d="M0 0 C2.95749791 3.46741134 5.07848152 6.86873527 7 11 C4.03 10.67 1.06 10.34 -2 10 C-2.625 7.1875 -2.625 7.1875 -3 4 C-1 1 -1 1 0 0 Z " fill="#22214E" transform="translate(41,176)"/>
<path d="M0 0 C1.65 0 3.3 0 5 0 C4.34 1.32 3.68 2.64 3 4 C3.825 4.721875 4.65 5.44375 5.5 6.1875 C8 9 8 9 8.3125 11.8125 C8.1578125 12.8953125 8.1578125 12.8953125 8 14 C7.34 14 6.68 14 6 14 C6 13.01 6 12.02 6 11 C5.34 11 4.68 11 4 11 C3.67 10.01 3.34 9.02 3 8 C1.35 7.67 -0.3 7.34 -2 7 C-1.34 4.69 -0.68 2.38 0 0 Z " fill="#EE1A25" transform="translate(179,64)"/>
<path d="M0 0 C0 0.33 0 0.66 0 1 C-1.10859375 1.19335938 -2.2171875 1.38671875 -3.359375 1.5859375 C-4.82297476 1.84863489 -6.28651327 2.11167367 -7.75 2.375 C-8.47960937 2.50132813 -9.20921875 2.62765625 -9.9609375 2.7578125 C-14.18706484 3.51918075 -14.18706484 3.51918075 -18.15625 5.09375 C-20.73628046 6.36190056 -22.89823547 6.19289916 -25.75 6.125 C-26.73484375 6.10695313 -27.7196875 6.08890625 -28.734375 6.0703125 C-29.85585937 6.03550781 -29.85585937 6.03550781 -31 6 C-28.0943431 4.40668283 -25.47634277 3.55182293 -22.2265625 2.9296875 C-20.8653125 2.66865234 -20.8653125 2.66865234 -19.4765625 2.40234375 C-18.53554687 2.22832031 -17.59453125 2.05429687 -16.625 1.875 C-15.22507812 1.60236328 -15.22507812 1.60236328 -13.796875 1.32421875 C-9.13806583 0.44656773 -4.76479444 -0.23903651 0 0 Z " fill="#92191E" transform="translate(114,1)"/>
<path d="M0 0 C1.32 0.33 2.64 0.66 4 1 C4 2.65 4 4.3 4 6 C5.65 6 7.3 6 9 6 C9 8.97 9 11.94 9 15 C0 4.33333333 0 4.33333333 0 0 Z " fill="#1B1F44" transform="translate(57,164)"/>
<path d="M0 0 C0.99 0.33 1.98 0.66 3 1 C-1.75 6.875 -1.75 6.875 -4 8 C-1.36 8.33 1.28 8.66 4 9 C4 9.33 4 9.66 4 10 C0.7 10 -2.6 10 -6 10 C-5.67 7.69 -5.34 5.38 -5 3 C-3.35 2.67 -1.7 2.34 0 2 C0 1.34 0 0.68 0 0 Z " fill="#E9212B" transform="translate(197,210)"/>
<path d="M0 0 C0.33 0 0.66 0 1 0 C0.67 6.93 0.34 13.86 0 21 C-2.47430256 18.52569744 -2.26006698 17.07024224 -2.2734375 13.6875 C-2.26570313 13.006875 -2.25796875 12.32625 -2.25 11.625 C-2.25773437 10.95210937 -2.26546875 10.27921875 -2.2734375 9.5859375 C-2.25889608 5.8924164 -2.02663956 3.13646599 0 0 Z " fill="#F01C29" transform="translate(31,77)"/>
<path d="M0 0 C0 0.99 0 1.98 0 3 C-1 4 -2 5 -3 6 C-3.309375 6.845625 -3.61875 7.69125 -3.9375 8.5625 C-5 11 -5 11 -7.125 12.3125 C-8.053125 12.6528125 -8.053125 12.6528125 -9 13 C-9.66 12.01 -10.32 11.02 -11 10 C-5.555 5.05 -5.555 5.05 0 0 Z " fill="#C41D26" transform="translate(188,202)"/>
<path d="M0 0 C2.40685793 2.40685793 3.29355801 4.61994339 4.625 7.75 C5.07101562 8.77609375 5.51703125 9.8021875 5.9765625 10.859375 C7.03385451 14.10388943 7.1926856 16.61278998 7 20 C6.34 20.33 5.68 20.66 5 21 C4.89042969 20.31292969 4.78085937 19.62585938 4.66796875 18.91796875 C4.50941406 18.01691406 4.35085938 17.11585938 4.1875 16.1875 C4.03667969 15.29417969 3.88585937 14.40085938 3.73046875 13.48046875 C3.20070023 10.95145401 3.20070023 10.95145401 1.4375 9.4375 C0 8 0 8 -0.29296875 5.95703125 C-0.1953125 3.97135417 -0.09765625 1.98567708 0 0 Z " fill="#A61D24" transform="translate(262,132)"/>
<path d="M0 0 C-2.97 4.95 -2.97 4.95 -6 10 C-8.56687367 6.1496895 -7.83288724 4.41430237 -7 0 C-4 -1 -4 -1 0 0 Z " fill="#E81F2A" transform="translate(132,2)"/>
<path d="M0 0 C0.99 0 1.98 0 3 0 C3 0.66 3 1.32 3 2 C2.360625 2.268125 1.72125 2.53625 1.0625 2.8125 C-1.33131686 3.88667752 -1.33131686 3.88667752 -2 7 C-1.071875 7.2165625 -1.071875 7.2165625 -0.125 7.4375 C2 8 2 8 4 9 C3.67 10.32 3.34 11.64 3 13 C0.03 10.36 -2.94 7.72 -6 5 C-5.195625 4.360625 -4.39125 3.72125 -3.5625 3.0625 C-1.7249496 1.59396498 -1.7249496 1.59396498 0 0 Z " fill="#BF1920" transform="translate(70,203)"/>
<path d="M0 0 C2.475 0.495 2.475 0.495 5 1 C5 1.99 5 2.98 5 4 C5.66 4 6.32 4 7 4 C7 4.99 7 5.98 7 7 C9.475 7.99 9.475 7.99 12 9 C11.01 9.495 11.01 9.495 10 10 C5.39261589 8.19711057 2.74299915 6.11449872 0 2 C0 1.34 0 0.68 0 0 Z " fill="#D41F28" transform="translate(178,71)"/>
<path d="M0 0 C0.33 0 0.66 0 1 0 C1.50509208 2.24886238 2.00389179 4.49913869 2.5 6.75 C2.7784375 8.00296875 3.056875 9.2559375 3.34375 10.546875 C4 14 4 14 4 18 C2.68 18.33 1.36 18.66 0 19 C0 12.73 0 6.46 0 0 Z " fill="#A01A1F" transform="translate(61,107)"/>
<path d="M0 0 C2.97 0 5.94 0 9 0 C8.01 0.495 8.01 0.495 7 1 C6.53348793 3.12576782 6.53348793 3.12576782 6.375 5.5625 C6.30023438 6.38878906 6.22546875 7.21507812 6.1484375 8.06640625 C6.09945312 8.70449219 6.05046875 9.34257812 6 10 C3.25722422 6.80009492 1.3697164 3.99500618 0 0 Z " fill="#E7212B" transform="translate(137,1)"/>
<path d="M0 0 C4.29 0.66 8.58 1.32 13 2 C7.87513572 4.56243214 4.68186432 5.10720499 -1 5 C-1 2 -1 2 0 0 Z " fill="#BD1923" transform="translate(53,215)"/>
<path d="M0 0 C0.33 0.66 0.66 1.32 1 2 C2.32 2 3.64 2 5 2 C5 2.66 5 3.32 5 4 C10.94 5.485 10.94 5.485 17 7 C17 7.33 17 7.66 17 8 C14.36 8.33 11.72 8.66 9 9 C9 8.34 9 7.68 9 7 C6.36 6.67 3.72 6.34 1 6 C0.34 4.35 -0.32 2.7 -1 1 C-0.67 0.67 -0.34 0.34 0 0 Z " fill="#AB1A21" transform="translate(150,209)"/>
<path d="M0 0 C0.99 0.33 1.98 0.66 3 1 C2.67 1.66 2.34 2.32 2 3 C1.34 3 0.68 3 0 3 C-0.20625 3.5775 -0.4125 4.155 -0.625 4.75 C-2.49750888 7.81410544 -4.96958519 9.15539968 -8 11 C-8.66 10.67 -9.32 10.34 -10 10 C-6.7 6.7 -3.4 3.4 0 0 Z " fill="#A11921" transform="translate(175,176)"/>
<path d="M0 0 C2.95929119 2.75520215 5.03681826 5.46627288 7 9 C6.34 9.66 5.68 10.32 5 11 C4.67 10.01 4.34 9.02 4 8 C3.01 8.66 2.02 9.32 1 10 C0.731875 9.360625 0.46375 8.72125 0.1875 8.0625 C-0.88667752 5.66868314 -0.88667752 5.66868314 -4 5 C-2.68 4.67 -1.36 4.34 0 4 C0 2.68 0 1.36 0 0 Z " fill="#CE1D26" transform="translate(41,199)"/>
<path d="M0 0 C-0.33 1.65 -0.66 3.3 -1 5 C-1.66 5 -2.32 5 -3 5 C-3 5.66 -3 6.32 -3 7 C-4.65 7 -6.3 7 -8 7 C-6.4365884 2.43002763 -5.27390657 0 0 0 Z " fill="#24234F" transform="translate(229,180)"/>
<path d="M0 0 C0.66 0.66 1.32 1.32 2 2 C1.54545455 7.45454545 1.54545455 7.45454545 -1 10 C-2.32 10 -3.64 10 -5 10 C-4.1875 7.0625 -4.1875 7.0625 -3 4 C-2.01 3.67 -1.02 3.34 0 3 C0 2.01 0 1.02 0 0 Z " fill="#F01B26" transform="translate(193,153)"/>
<path d="M0 0 C0.33 0 0.66 0 1 0 C1.33 1.65 1.66 3.3 2 5 C2.33 5 2.66 5 3 5 C3.08159574 9.16138263 2.98248524 12.9472484 2 17 C-0.42472438 14.48177725 -0.99254989 13.32466794 -1.07421875 9.765625 C-0.94660156 8.60546875 -0.81898438 7.4453125 -0.6875 6.25 C-0.56761719 5.07953125 -0.44773438 3.9090625 -0.32421875 2.703125 C-0.21722656 1.81109375 -0.11023438 0.9190625 0 0 Z " fill="#F11C29" transform="translate(209,98)"/>
<path d="M0 0 C0.70125 0.2475 1.4025 0.495 2.125 0.75 C-6.32327586 7.75 -6.32327586 7.75 -9.875 7.75 C-9.75 6 -9.75 6 -8.875 3.75 C-4.00173056 -0.34797657 -4.00173056 -0.34797657 0 0 Z " fill="#C31D24" transform="translate(72.875,82.25)"/>
<path d="M0 0 C1.66666667 0 3.33333333 0 5 0 C3.44396229 3.81936528 1.04395069 6.26044438 -2 9 C-2.66 9 -3.32 9 -4 9 C-2.94124926 5.59687262 -1.99097846 2.98646769 0 0 Z " fill="#1A2043" transform="translate(122,16)"/>
<path d="M0 0 C2.96052484 3.36423277 3.92289822 6.69159287 5 11 C4.34 11 3.68 11 3 11 C3 10.01 3 9.02 3 8 C1.02 8.33 -0.96 8.66 -3 9 C-2.01 6.03 -1.02 3.06 0 0 Z " fill="#381C3D" transform="translate(52,135)"/>
<path d="M0 0 C1.99954746 -0.04254356 4.00041636 -0.04080783 6 0 C6.33 0.33 6.66 0.66 7 1 C8.66617115 1.04063832 10.33388095 1.042721 12 1 C11.01 1.495 11.01 1.495 10 2 C10 2.66 10 3.32 10 4 C7.69 4.66 5.38 5.32 3 6 C2 4 1 2 0 0 Z " fill="#F11C23" transform="translate(155,30)"/>
<path d="M0 0 C0.99 0.33 1.98 0.66 3 1 C3.33 2.98 3.66 4.96 4 7 C6.64 7.33 9.28 7.66 12 8 C12 8.33 12 8.66 12 9 C6.76882431 9.52311757 6.76882431 9.52311757 4 9 C1.22858911 5.88216275 0 4.20153496 0 0 Z " fill="#151832" transform="translate(35,179)"/>
<path d="M0 0 C4.69360269 2.17508418 4.69360269 2.17508418 5.8125 5.1875 C5.874375 5.785625 5.93625 6.38375 6 7 C4.68 7.33 3.36 7.66 2 8 C1.67 7.34 1.34 6.68 1 6 C0.01 5.67 -0.98 5.34 -2 5 C-2 3.68 -2 2.36 -2 1 C-1.34 0.67 -0.68 0.34 0 0 Z " fill="#1E2456" transform="translate(59,159)"/>
<path d="M0 0 C0.66 0.33 1.32 0.66 2 1 C2.4140625 3.50390625 2.4140625 3.50390625 2.625 6.5625 C2.69976562 7.57441406 2.77453125 8.58632812 2.8515625 9.62890625 C2.90054688 10.41136719 2.94953125 11.19382812 3 12 C1.35 12.33 -0.3 12.66 -2 13 C-1.67 12.34 -1.34 11.68 -1 11 C-0.7724985 9.12943209 -0.59037189 7.25314042 -0.4375 5.375 C-0.35371094 4.37210937 -0.26992188 3.36921875 -0.18359375 2.3359375 C-0.12300781 1.56507812 -0.06242187 0.79421875 0 0 Z " fill="#F21D29" transform="translate(46,75)"/>
<path d="M0 0 C-1.07401108 2.91517292 -1.77810176 4.77810176 -4 7 C-4 5.68 -4 4.36 -4 3 C-5.0725 3.350625 -6.145 3.70125 -7.25 4.0625 C-10.78720743 4.94680186 -11.74811124 5.02880551 -15 4 C-13.06441401 3.32779649 -11.12645628 2.66241923 -9.1875 2 C-8.10855469 1.62875 -7.02960938 1.2575 -5.91796875 0.875 C-3 0 -3 0 0 0 Z " fill="#A1202B" transform="translate(98,59)"/>
<path d="M0 0 C0.66 0 1.32 0 2 0 C2.33 1.32 2.66 2.64 3 4 C0.69 5.98 -1.62 7.96 -4 10 C-4 8.68 -4 7.36 -4 6 C-3.34 6 -2.68 6 -2 6 C-1.7834375 5.071875 -1.7834375 5.071875 -1.5625 4.125 C-1 2 -1 2 0 0 Z " fill="#D61F2A" transform="translate(204,201)"/>
<path d="M0 0 C1.4606285 2.64738916 2 3.89448334 2 7 C0.35 7.66 -1.3 8.32 -3 9 C-3.66 8.34 -4.32 7.68 -5 7 C-3.35 4.69 -1.7 2.38 0 0 Z " fill="#B91B23" transform="translate(234,189)"/>
<path d="M0 0 C2.60608273 2.5162178 4.89381685 5.05134359 7 8 C6.67 8.66 6.34 9.32 6 10 C3.5625 9.375 3.5625 9.375 1 8 C0.24936281 5.22841653 0 2.85785481 0 0 Z " fill="#B81D23" transform="translate(81,161)"/>
<path d="M0 0 C0.66 0.33 1.32 0.66 2 1 C1.67 2.32 1.34 3.64 1 5 C0.34 5 -0.32 5 -1 5 C-1.433125 6.134375 -1.86625 7.26875 -2.3125 8.4375 C-2.869375 9.613125 -3.42625 10.78875 -4 12 C-4.99 12.33 -5.98 12.66 -7 13 C-5.35821735 8.22390502 -2.73453298 4.20617096 0 0 Z " fill="#A61D24" transform="translate(68,11)"/>
<path d="M0 0 C1.32 0.33 2.64 0.66 4 1 C4.66 4.3 5.32 7.6 6 11 C3.05321567 8.05321567 1.67958081 5.75906182 0 2 C0 1.34 0 0.68 0 0 Z " fill="#AF1C23" transform="translate(12,179)"/>
<path d="M0 0 C0.33 0.99 0.66 1.98 1 3 C1.66 3 2.32 3 3 3 C3 4.65 3 6.3 3 8 C0.525 7.01 0.525 7.01 -2 6 C-1.34 4.02 -0.68 2.04 0 0 Z " fill="#ED1B23" transform="translate(195,19)"/>
<path d="M0 0 C0.99 0.99 1.98 1.98 3 3 C2.67 3.66 2.34 4.32 2 5 C1.01 4.34 0.02 3.68 -1 3 C-1.66 4.32 -2.32 5.64 -3 7 C-3.99 6.67 -4.98 6.34 -6 6 C-6 5.34 -6 4.68 -6 4 C-5.360625 3.87625 -4.72125 3.7525 -4.0625 3.625 C-3.0415625 3.315625 -3.0415625 3.315625 -2 3 C-1.67 2.34 -1.34 1.68 -1 1 C-0.67 0.67 -0.34 0.34 0 0 Z " fill="#D01B22" transform="translate(54,170)"/>
<path d="M0 0 C2.0625 1.6875 2.0625 1.6875 4 4 C3.75 6.75 3.75 6.75 3 9 C1.68 9.33 0.36 9.66 -1 10 C-0.67 6.7 -0.34 3.4 0 0 Z " fill="#2C204D" transform="translate(66,165)"/>
<path d="M0 0 C2 2 2 2 2.125 4.625 C2.08375 5.40875 2.0425 6.1925 2 7 C1.34 7 0.68 7 0 7 C-0.33 8.32 -0.66 9.64 -1 11 C-1.66 10.67 -2.32 10.34 -3 10 C-2.01 6.7 -1.02 3.4 0 0 Z " fill="#2D2049" transform="translate(215,136)"/>
<path d="M0 0 C2.92879371 0.62759865 5.36095629 1.58622659 8 3 C7.01 4.485 7.01 4.485 6 6 C5.01 6 4.02 6 3 6 C2.01 4.02 1.02 2.04 0 0 Z " fill="#E5202C" transform="translate(171,60)"/>
<path d="M0 0 C2 1 2 1 3 3 C2.67 3.66 2.34 4.32 2 5 C4.475 5.99 4.475 5.99 7 7 C6.01 8.32 5.02 9.64 4 11 C2.35 7.7 0.7 4.4 -1 1 C-0.67 0.67 -0.34 0.34 0 0 Z " fill="#E0212C" transform="translate(156,31)"/>
<path d="M0 0 C0.66 1.32 1.32 2.64 2 4 C0.02 5.32 -1.96 6.64 -4 8 C-4.1875 5.625 -4.1875 5.625 -4 3 C-3.01 2.34 -2.02 1.68 -1 1 C-0.67 0.67 -0.34 0.34 0 0 Z " fill="#C21D24" transform="translate(166,200)"/>
<path d="M0 0 C1.32 0.33 2.64 0.66 4 1 C5.16552619 5.19589427 5.08954032 5.82091936 3 10 C2.01 6.7 1.02 3.4 0 0 Z " fill="#AA1A21" transform="translate(26,143)"/>
<path d="M0 0 C0.66 0 1.32 0 2 0 C1.5206753 4.31392226 0.2542015 6.16569547 -3 9 C-3.66 8.67 -4.32 8.34 -5 8 C-4.21718695 6.66144944 -3.42348123 5.32926356 -2.625 4 C-2.18414062 3.2575 -1.74328125 2.515 -1.2890625 1.75 C-0.86367187 1.1725 -0.43828125 0.595 0 0 Z " fill="#282049" transform="translate(94,66)"/>
<path d="M0 0 C1.33333333 0.66666667 2.66666667 1.33333333 4 2 C3.67 3.32 3.34 4.64 3 6 C0.08482708 4.92598892 -1.77810176 4.22189824 -4 2 C-2.125 0.9375 -2.125 0.9375 0 0 Z " fill="#CA1D24" transform="translate(105,234)"/>
<path d="M0 0 C3.53586014 3.17320782 5.58578031 5.16743695 6 10 C4.02 10.99 4.02 10.99 2 12 C2.226875 11.0925 2.45375 10.185 2.6875 9.25 C3.33556459 6.01560852 3.33556459 6.01560852 1.5625 3.75 C1.046875 3.1725 0.53125 2.595 0 2 C0 1.34 0 0.68 0 0 Z " fill="#2C1F49" transform="translate(70,171)"/>
<path d="M0 0 C0 1.32 0 2.64 0 4 C-2.95664519 5.4783226 -5.74229737 5.06032783 -9 5 C-7.68 4.67 -6.36 4.34 -5 4 C-5 3.34 -5 2.68 -5 2 C-2 0 -2 0 0 0 Z " fill="#141735" transform="translate(231,183)"/>
<path d="M0 0 C0.99 0 1.98 0 3 0 C2.5205537 4.21912747 1.83374881 6.79663178 -1 10 C-1.02689216 8.52093108 -1.04634621 7.04172517 -1.0625 5.5625 C-1.07410156 4.73878906 -1.08570313 3.91507813 -1.09765625 3.06640625 C-1 1 -1 1 0 0 Z " fill="#B51E25" transform="translate(237,149)"/>
<path d="M0 0 C2 3 2 3 1.7578125 5.26171875 C1.54898438 6.06222656 1.34015625 6.86273438 1.125 7.6875 C0.92132813 8.49574219 0.71765625 9.30398437 0.5078125 10.13671875 C0.25644531 11.05904297 0.25644531 11.05904297 0 12 C-2.12466485 8.23909901 -2.01055246 6.22594667 -1 2 C-0.67 1.34 -0.34 0.68 0 0 Z " fill="#151A38" transform="translate(200,110)"/>
<path d="M0 0 C0.66 0 1.32 0 2 0 C1.69381595 3.67420866 1.24228216 4.78135513 -1.5625 7.3125 C-2.366875 7.869375 -3.17125 8.42625 -4 9 C-4 7.35 -4 5.7 -4 4 C-2.68 4 -1.36 4 0 4 C0 2.68 0 1.36 0 0 Z " fill="#BA1D23" transform="translate(39,106)"/>
<path d="M0 0 C-0.1875 1.875 -0.1875 1.875 -1 4 C-3.375 5.3125 -3.375 5.3125 -6 6 C-6.99 5.67 -7.98 5.34 -9 5 C-7.35 4.67 -5.7 4.34 -4 4 C-4.33 3.01 -4.66 2.02 -5 1 C-2 0 -2 0 0 0 Z " fill="#B41C26" transform="translate(223,225)"/>
<path d="M0 0 C3.3 0 6.6 0 10 0 C10 0.99 10 1.98 10 3 C6.14354879 3.22036864 3.50776784 2.60355101 0 1 C0 0.67 0 0.34 0 0 Z " fill="#F01F25" transform="translate(66,219)"/>
<path d="M0 0 C0.33 0.99 0.66 1.98 1 3 C-1.97180943 4.89865603 -4.51460083 6.35455571 -8 7 C-5.42215154 4.35247996 -3.08351902 2.05567935 0 0 Z " fill="#B71E26" transform="translate(162,189)"/>
<path d="M0 0 C1.1875 1.625 1.1875 1.625 2 4 C0.625 7.25 0.625 7.25 -1 10 C-1.33 10 -1.66 10 -2 10 C-2.25 3.375 -2.25 3.375 0 0 Z " fill="#C11D25" transform="translate(261,164)"/>
<path d="M0 0 C0.33 0 0.66 0 1 0 C1.125 7.75 1.125 7.75 0 10 C-0.99 10 -1.98 10 -3 10 C-2.01 6.7 -1.02 3.4 0 0 Z " fill="#A71B1F" transform="translate(226,144)"/>
<path d="M0 0 C0 4.38968456 -2.12805101 5.76905739 -5 9 C-5.66 8.01 -6.32 7.02 -7 6 C-4.69 4.02 -2.38 2.04 0 0 Z " fill="#B71D25" transform="translate(26,65)"/>
<path d="M0 0 C0.66 0.33 1.32 0.66 2 1 C0.10595266 4.34243648 -0.94091591 4.97997149 -4.6875 6.25 C-6.3271875 6.62125 -6.3271875 6.62125 -8 7 C-5.42215154 4.35247996 -3.08351902 2.05567935 0 0 Z " fill="#AF202A" transform="translate(41,54)"/>
<path d="M0 0 C0.99 0.33 1.98 0.66 3 1 C2.60196439 3.88575819 2.20990931 4.82189513 -0.0625 6.75 C-0.701875 7.1625 -1.34125 7.575 -2 8 C-2 5 -2 5 -0.5 3.3125 C0.2425 2.6628125 0.2425 2.6628125 1 2 C-0.32 2.33 -1.64 2.66 -3 3 C-2.01 2.01 -1.02 1.02 0 0 Z " fill="#CA1E20" transform="translate(46,51)"/>
<path d="M0 0 C1.65 0 3.3 0 5 0 C4.51171875 6.0546875 4.51171875 6.0546875 4 8 C3.01 8.66 2.02 9.32 1 10 C1.55728913 6.65626525 2.35173889 3.96687001 4 1 C2.68 0.67 1.36 0.34 0 0 Z " fill="#341B3C" transform="translate(111,28)"/>
<path d="M0 0 C2.375 0.1875 2.375 0.1875 5 1 C6.3125 3.5625 6.3125 3.5625 7 6 C2.32307692 4.52307692 2.32307692 4.52307692 0.6875 1.875 C0.460625 1.25625 0.23375 0.6375 0 0 Z " fill="#B61D24" transform="translate(98,200)"/>
<path d="M0 0 C0.33 0.66 0.66 1.32 1 2 C3.52733235 2.65555119 3.52733235 2.65555119 6 3 C6 3.66 6 4.32 6 5 C3.03 4.67 0.06 4.34 -3 4 C-2.67 3.01 -2.34 2.02 -2 1 C-1.34 0.67 -0.68 0.34 0 0 Z " fill="#F11A22" transform="translate(206,185)"/>
<path d="M0 0 C2.92824652 0.97608217 4.61426621 2.10786631 7 4 C4.36 4 1.72 4 -1 4 C-1 1 -1 1 0 0 Z " fill="#14142D" transform="translate(188,184)"/>
<path d="M0 0 C0.33 0 0.66 0 1 0 C0.53199289 4.05606165 0.12046792 7.46588679 -2 11 C-2.66 11 -3.32 11 -4 11 C-3.52269162 9.5410574 -3.04308958 8.08286504 -2.5625 6.625 C-2.29566406 5.81289062 -2.02882812 5.00078125 -1.75390625 4.1640625 C-1 2 -1 2 0 0 Z " fill="#9E1C24" transform="translate(198,139)"/>
<path d="M0 0 C2.72426311 2.35277269 3.8141763 4.62496331 5 8 C3.68 7.67 2.36 7.34 1 7 C1 6.34 1 5.68 1 5 C0.01 4.67 -0.98 4.34 -2 4 C-1.34 2.68 -0.68 1.36 0 0 Z " fill="#B41D25" transform="translate(257,124)"/>
<path d="M0 0 C0.33 0 0.66 0 1 0 C1.33663062 3.70293685 1.47736015 5.39534381 -0.875 8.375 C-3 10 -3 10 -5 10 C-3.33333333 6.66666667 -1.66666667 3.33333333 0 0 Z " fill="#A81D25" transform="translate(19,110)"/>
<path d="M0 0 C2.31 0.33 4.62 0.66 7 1 C7.33 2.32 7.66 3.64 8 5 C4.62496331 3.8141763 2.35277269 2.72426311 0 0 Z " fill="#AE1D26" transform="translate(196,84)"/>
<path d="M0 0 C-0.33 0.99 -0.66 1.98 -1 3 C-1.66 3 -2.32 3 -3 3 C-3 3.99 -3 4.98 -3 6 C-3.99 6.33 -4.98 6.66 -6 7 C-6 4 -6 4 -4.125 1.8125 C-2 0 -2 0 0 0 Z " fill="#F11B26" transform="translate(47,53)"/>
<path d="M0 0 C0.99 0.33 1.98 0.66 3 1 C1.35 2.98 -0.3 4.96 -2 7 C-2.33 5.68 -2.66 4.36 -3 3 C-2.01 2.67 -1.02 2.34 0 2 C0 1.34 0 0.68 0 0 Z " fill="#CA1F2A" transform="translate(197,210)"/>
<path d="M0 0 C0.66 0 1.32 0 2 0 C2 0.66 2 1.32 2 2 C2.639375 2.28875 3.27875 2.5775 3.9375 2.875 C6 4 6 4 7 6 C6.34 6.66 5.68 7.32 5 8 C0 2.25 0 2.25 0 0 Z " fill="#B51D27" transform="translate(52,192)"/>
<path d="M0 0 C0.66 0 1.32 0 2 0 C1.46930939 3.82097239 0.50298434 6.06171403 -2 9 C-2 7.02 -2 5.04 -2 3 C-1.34 3 -0.68 3 0 3 C0 2.01 0 1.02 0 0 Z " fill="#BF1E26" transform="translate(250,186)"/>
<path d="M0 0 C0.99 0.33 1.98 0.66 3 1 C4.1875 3.5625 4.1875 3.5625 5 6 C4.34 6.66 3.68 7.32 3 8 C0 3.375 0 3.375 0 0 Z " fill="#E01F2F" transform="translate(38,168)"/>
<path d="M0 0 C2.31 1.98 4.62 3.96 7 6 C6.01 6.33 5.02 6.66 4 7 C1 5 1 5 0.3125 2.375 C0.209375 1.59125 0.10625 0.8075 0 0 Z " fill="#B71D23" transform="translate(242,65)"/>
<path d="M0 0 C1 2 2 4 3 6 C-2.75 4.25 -2.75 4.25 -5 2 C-3.35 1.34 -1.7 0.68 0 0 Z " fill="#F21923" transform="translate(123,241)"/>
<path d="M0 0 C1 2 1 2 0.375 4.5625 C-1 7 -1 7 -3.625 7.8125 C-4.40875 7.874375 -5.1925 7.93625 -6 8 C-4.02 5.36 -2.04 2.72 0 0 Z " fill="#AF1C26" transform="translate(223,204)"/>
<path d="M0 0 C2.16874252 0.50603992 3.99967627 0.99983813 6 2 C5.67 3.32 5.34 4.64 5 6 C3.2925002 4.71937515 1.62626404 3.38232443 0 2 C0 1.34 0 0.68 0 0 Z " fill="#B71E26" transform="translate(68,210)"/>
<path d="M0 0 C1.32 0.33 2.64 0.66 4 1 C2.68 2.32 1.36 3.64 0 5 C-0.66 4.67 -1.32 4.34 -2 4 C-1.34 2.68 -0.68 1.36 0 0 Z " fill="#181E46" transform="translate(196,182)"/>
<path d="M0 0 C0.33 0.66 0.66 1.32 1 2 C0.67 2.66 0.34 3.32 0 4 C0.66 4 1.32 4 2 4 C2 4.66 2 5.32 2 6 C0.02 6.66 -1.96 7.32 -4 8 C-2.87548273 5.0280615 -1.77706209 2.66559313 0 0 Z " fill="#331E46" transform="translate(228,174)"/>
<path d="M0 0 C0.33 1.32 0.66 2.64 1 4 C-0.65 5.32 -2.3 6.64 -4 8 C-3.50168276 4.31245243 -2.89932357 2.39509338 0 0 Z " fill="#191E44" transform="translate(167,174)"/>
<path d="M0 0 C2.0625 0.4375 2.0625 0.4375 4 1 C3 4 3 4 1 5 C0.34 4.67 -0.32 4.34 -1 4 C-1.33 4.66 -1.66 5.32 -2 6 C-1.125 1.125 -1.125 1.125 0 0 Z " fill="#1D2358" transform="translate(54,148)"/>
<path d="M0 0 C3.36720387 1.39332574 4.9859524 2.9789286 7 6 C5.68 6 4.36 6 3 6 C0 2.78571429 0 2.78571429 0 0 Z " fill="#B01D25" transform="translate(225,87)"/>
<path d="M0 0 C2.97 0.495 2.97 0.495 6 1 C6 1.99 6 2.98 6 4 C6.33 4.66 6.66 5.32 7 6 C4.50638429 4.79618552 2.31856917 3.54571278 0 2 C0 1.34 0 0.68 0 0 Z " fill="#AD1C21" transform="translate(227,71)"/>
<path d="M0 0 C1.32 0 2.64 0 4 0 C5.8125 2.375 5.8125 2.375 7 5 C6.67 5.66 6.34 6.32 6 7 C5.01 6.67 4.02 6.34 3 6 C3 4.35 3 2.7 3 1 C2.01 0.67 1.02 0.34 0 0 Z " fill="#B91F29" transform="translate(197,11)"/>
<path d="M0 0 C0.66 0.99 1.32 1.98 2 3 C1 6 1 6 -1.0625 7.1875 C-1.701875 7.455625 -2.34125 7.72375 -3 8 C-2.45276317 4.62537285 -1.9451 2.91765 0 0 Z " fill="#2F1F4B" transform="translate(126,10)"/>
<path d="M0 0 C1.32 0.99 2.64 1.98 4 3 C2.68 4.32 1.36 5.64 0 7 C0 5.68 0 4.36 0 3 C-0.66 2.67 -1.32 2.34 -2 2 C-1.34 1.34 -0.68 0.68 0 0 Z " fill="#171F41" transform="translate(205,168)"/>
<path d="M0 0 C0.99 0.33 1.98 0.66 3 1 C2.34 2.98 1.68 4.96 1 7 C0.34 7 -0.32 7 -1 7 C-1.625 4.625 -1.625 4.625 -2 2 C-1.34 1.34 -0.68 0.68 0 0 Z " fill="#1B2552" transform="translate(134,2)"/>
<path d="" fill="#000000" transform="translate(0,0)"/>
<path d="" fill="#000000" transform="translate(0,0)"/>
<path d="" fill="#000000" transform="translate(0,0)"/>
<path d="" fill="#000000" transform="translate(0,0)"/>
<path d="" fill="#000000" transform="translate(0,0)"/>
<path d="" fill="#000000" transform="translate(0,0)"/>
<path d="" fill="#000000" transform="translate(0,0)"/>
<path d="" fill="#000000" transform="translate(0,0)"/>
<path d="" fill="#000000" transform="translate(0,0)"/>
<path d="" fill="#000000" transform="translate(0,0)"/>
<path d="" fill="#000000" transform="translate(0,0)"/>
<path d="" fill="#000000" transform="translate(0,0)"/>
<path d="" fill="#000000" transform="translate(0,0)"/>
<path d="" fill="#000000" transform="translate(0,0)"/>
<path d="" fill="#000000" transform="translate(0,0)"/>
<path d="" fill="#000000" transform="translate(0,0)"/>
<path d="" fill="#000000" transform="translate(0,0)"/>
<path d="" fill="#000000" transform="translate(0,0)"/>
<path d="" fill="#000000" transform="translate(0,0)"/>
<path d="" fill="#000000" transform="translate(0,0)"/>
<path d="" fill="#000000" transform="translate(0,0)"/>
<path d="" fill="#000000" transform="translate(0,0)"/>
<path d="" fill="#000000" transform="translate(0,0)"/>
<path d="" fill="#000000" transform="translate(0,0)"/>
<path d="" fill="#000000" transform="translate(0,0)"/>
<path d="" fill="#000000" transform="translate(0,0)"/>
<path d="" fill="#000000" transform="translate(0,0)"/>
<path d="" fill="#000000" transform="translate(0,0)"/>
<path d="" fill="#000000" transform="translate(0,0)"/>
<path d="" fill="#000000" transform="translate(0,0)"/>
<path d="" fill="#000000" transform="translate(0,0)"/>
<path d="" fill="#000000" transform="translate(0,0)"/>
<path d="" fill="#000000" transform="translate(0,0)"/>
<path d="" fill="#000000" transform="translate(0,0)"/>
<path d="" fill="#000000" transform="translate(0,0)"/>
<path d="" fill="#000000" transform="translate(0,0)"/>
<path d="" fill="#000000" transform="translate(0,0)"/>
<path d="" fill="#000000" transform="translate(0,0)"/>
<path d="" fill="#000000" transform="translate(0,0)"/>
<path d="" fill="#000000" transform="translate(0,0)"/>
<path d="" fill="#000000" transform="translate(0,0)"/>
<path d="" fill="#000000" transform="translate(0,0)"/>
<path d="" fill="#000000" transform="translate(0,0)"/>
<path d="" fill="#000000" transform="translate(0,0)"/>
<path d="" fill="#000000" transform="translate(0,0)"/>
<path d="" fill="#000000" transform="translate(0,0)"/>
<path d="" fill="#000000" transform="translate(0,0)"/>
<path d="" fill="#000000" transform="translate(0,0)"/>
<path d="" fill="#000000" transform="translate(0,0)"/>
<path d="" fill="#000000" transform="translate(0,0)"/>
<path d="" fill="#000000" transform="translate(0,0)"/>
<path d="" fill="#000000" transform="translate(0,0)"/>
<path d="" fill="#000000" transform="translate(0,0)"/>
<path d="" fill="#000000" transform="translate(0,0)"/>
<path d="" fill="#000000" transform="translate(0,0)"/>
<path d="" fill="#000000" transform="translate(0,0)"/>
<path d="" fill="#000000" transform="translate(0,0)"/>
<path d="" fill="#000000" transform="translate(0,0)"/>
<path d="" fill="#000000" transform="translate(0,0)"/>
<path d="" fill="#000000" transform="translate(0,0)"/>
<path d="" fill="#000000" transform="translate(0,0)"/>
<path d="" fill="#000000" transform="translate(0,0)"/>
<path d="" fill="#000000" transform="translate(0,0)"/>
<path d="" fill="#000000" transform="translate(0,0)"/>
<path d="" fill="#000000" transform="translate(0,0)"/>
<path d="" fill="#000000" transform="translate(0,0)"/>
<path d="" fill="#000000" transform="translate(0,0)"/>
<path d="" fill="#000000" transform="translate(0,0)"/>
<path d="" fill="#000000" transform="translate(0,0)"/>
<path d="" fill="#000000" transform="translate(0,0)"/>
<path d="" fill="#000000" transform="translate(0,0)"/>
<path d="" fill="#000000" transform="translate(0,0)"/>
<path d="" fill="#000000" transform="translate(0,0)"/>
<path d="" fill="#000000" transform="translate(0,0)"/>
<path d="" fill="#000000" transform="translate(0,0)"/>
<path d="" fill="#000000" transform="translate(0,0)"/>
<path d="" fill="#000000" transform="translate(0,0)"/>
<path d="" fill="#000000" transform="translate(0,0)"/>
<path d="" fill="#000000" transform="translate(0,0)"/>
<path d="" fill="#000000" transform="translate(0,0)"/>
<path d="" fill="#000000" transform="translate(0,0)"/>
<path d="" fill="#000000" transform="translate(0,0)"/>
<path d="" fill="#000000" transform="translate(0,0)"/>
<path d="" fill="#000000" transform="translate(0,0)"/>
<path d="" fill="#000000" transform="translate(0,0)"/>
<path d="" fill="#000000" transform="translate(0,0)"/>
<path d="" fill="#000000" transform="translate(0,0)"/>
<path d="" fill="#000000" transform="translate(0,0)"/>
<path d="" fill="#000000" transform="translate(0,0)"/>
<path d="" fill="#000000" transform="translate(0,0)"/>
<path d="" fill="#000000" transform="translate(0,0)"/>
<path d="" fill="#000000" transform="translate(0,0)"/>
<path d="" fill="#000000" transform="translate(0,0)"/>
<path d="" fill="#000000" transform="translate(0,0)"/>
<path d="" fill="#000000" transform="translate(0,0)"/>
<path d="" fill="#000000" transform="translate(0,0)"/>
<path d="" fill="#000000" transform="translate(0,0)"/>
<path d="" fill="#000000" transform="translate(0,0)"/>
<path d="" fill="#000000" transform="translate(0,0)"/>
<path d="" fill="#000000" transform="translate(0,0)"/>
<path d="" fill="#000000" transform="translate(0,0)"/>
<path d="" fill="#000000" transform="translate(0,0)"/>
<path d="" fill="#000000" transform="translate(0,0)"/>
<path d="" fill="#000000" transform="translate(0,0)"/>
<path d="" fill="#000000" transform="translate(0,0)"/>
<path d="" fill="#000000" transform="translate(0,0)"/>
<path d="" fill="#000000" transform="translate(0,0)"/>
<path d="" fill="#000000" transform="translate(0,0)"/>
<path d="" fill="#000000" transform="translate(0,0)"/>
<path d="" fill="#000000" transform="translate(0,0)"/>
<path d="" fill="#000000" transform="translate(0,0)"/>
<path d="" fill="#000000" transform="translate(0,0)"/>
<path d="" fill="#000000" transform="translate(0,0)"/>
<path d="" fill="#000000" transform="translate(0,0)"/>
<path d="" fill="#000000" transform="translate(0,0)"/>
<path d="" fill="#000000" transform="translate(0,0)"/>
<path d="" fill="#000000" transform="translate(0,0)"/>
<path d="" fill="#000000" transform="translate(0,0)"/>
<path d="" fill="#000000" transform="translate(0,0)"/>
<path d="" fill="#000000" transform="translate(0,0)"/>
<path d="" fill="#000000" transform="translate(0,0)"/>
<path d="" fill="#000000" transform="translate(0,0)"/>
<path d="" fill="#000000" transform="translate(0,0)"/>
<path d="" fill="#000000" transform="translate(0,0)"/>
<path d="" fill="#000000" transform="translate(0,0)"/>
<path d="" fill="#000000" transform="translate(0,0)"/>
<path d="" fill="#000000" transform="translate(0,0)"/>
<path d="" fill="#000000" transform="translate(0,0)"/>
<path d="" fill="#000000" transform="translate(0,0)"/>
<path d="" fill="#000000" transform="translate(0,0)"/>
<path d="" fill="#000000" transform="translate(0,0)"/>
<path d="" fill="#000000" transform="translate(0,0)"/>
</svg>
